<svg width="249" height="24" viewBox="0 0 249 24" fill="none" xmlns="http://www.w3.org/2000/svg">
<path d="M248.277 1.35833H58.377V0.818172L58.7385 1.2683C58.7385 1.2683 58.377 1.53838 57.8347 2.07854C56.1174 3.60899 52.2308 7.02999 49.9711 10.0009C47.9827 12.6116 46.5365 15.2224 45.6326 17.1129C45.1807 18.1032 44.8192 18.8235 44.6384 19.3636C44.4576 19.9038 44.3672 20.1738 44.3672 20.1738L43.373 23.0547L43.2826 19.9938C43.2826 19.9938 43.2826 19.6337 43.2826 19.0935C43.2826 17.0229 43.373 11.6213 44.6384 7.57015C45.6326 4.41923 47.9827 0.458067 47.9827 0.458067L48.4346 0.728145V1.2683H0.530273V0.187988H49.3384L48.8865 0.998225C48.8865 0.998225 48.3442 1.98852 47.6211 3.33891C46.898 4.68931 46.0846 6.39981 45.6326 7.93026C44.4576 11.8014 44.2769 17.1129 44.2769 19.1836C44.2769 19.7237 44.2769 19.9938 44.2769 19.9938H43.7345L43.1922 19.8137C43.1922 19.8137 44.9096 14.6822 48.9769 9.28065C52.1404 5.13944 57.9251 0.36804 57.9251 0.36804L58.1058 0.278013H248.187V1.35833H248.277Z" fill="#AB8E77"/>
</svg>
