<svg width="51" height="108" viewBox="0 0 51 108" fill="none" xmlns="http://www.w3.org/2000/svg">
<path d="M33.5314 32.8985C33.5314 41.2985 29.7814 43.9985 23.6314 43.9985H17.1814V58.9985H22.7314C30.2314 58.9985 33.5314 62.5985 33.5314 72.3485V80.5985C33.5314 89.8985 30.2314 92.4485 24.9814 92.4485C19.7314 92.4485 16.4314 89.5985 16.4314 82.0985V72.3485H0.831446V81.0485C0.831446 97.8485 9.23145 107.449 25.4314 107.449C41.6314 107.449 50.0314 97.8485 50.0314 81.0485V72.7985C50.0314 62.1485 46.7314 54.3485 38.4814 50.7485C46.4314 47.4485 50.0314 40.3985 50.0314 29.1485V26.4485C50.0314 9.64853 41.6314 0.0485345 25.4314 0.0485345C9.23145 0.0485345 0.831446 9.64853 0.831446 26.4485V32.1485H16.4314V25.3985C16.4314 17.8985 19.7314 15.0485 24.9814 15.0485C30.2314 15.0485 33.5314 17.5985 33.5314 27.0485V32.8985Z" fill="white"/>
</svg>
