<svg width="19" height="26" viewBox="0 0 19 26" fill="none" xmlns="http://www.w3.org/2000/svg">
<path d="M19 26H0.544933V22.1273L9.04589 13.4665C11.1409 11.1546 12.1883 9.31799 12.1883 7.95667C12.1883 6.85353 11.9401 6.01444 11.4436 5.4394C10.9471 4.86436 10.2266 4.57684 9.28203 4.57684C8.34959 4.57684 7.59273 4.96412 7.01147 5.73866C6.43021 6.50147 6.13958 7.45791 6.13958 8.60799H0C0 7.03543 0.405672 5.5861 1.21702 4.25999C2.02836 2.92214 3.15456 1.87768 4.5956 1.12661C6.03665 0.375536 7.64723 0 9.42734 0C12.2852 0 14.4831 0.639585 16.021 1.91875C17.5711 3.19792 18.3461 5.03453 18.3461 7.42857C18.3461 8.43782 18.1523 9.42361 17.7648 10.3859C17.3773 11.3365 16.7718 12.3399 15.9484 13.3961C15.137 14.4405 13.8231 15.8429 12.0067 17.6032L8.59178 21.4232H19V26Z" fill="#CBA584"/>
</svg>
