<svg width="19" height="26" viewBox="0 0 19 26" fill="none" xmlns="http://www.w3.org/2000/svg">
<path d="M6.28544 10.5598H9.14083C11.4036 10.5598 12.535 9.48876 12.535 7.34669C12.535 6.51303 12.2656 5.83567 11.7268 5.31463C11.1881 4.78201 10.4279 4.5157 9.44613 4.5157C8.64398 4.5157 7.9436 4.74148 7.34499 5.19305C6.75835 5.64462 6.46503 6.20619 6.46503 6.87776H0.413043C0.413043 5.5462 0.796156 4.35939 1.56238 3.3173C2.32861 2.27522 3.38815 1.46471 4.74102 0.885772C6.10586 0.295257 7.60239 0 9.23062 0C12.1399 0 14.4266 0.642619 16.0907 1.92786C17.7549 3.21309 18.587 4.97885 18.587 7.22512C18.587 8.31352 18.2398 9.34402 17.5454 10.3166C16.863 11.2777 15.8633 12.0592 14.5463 12.6613C15.9351 13.1476 17.0246 13.8887 17.8147 14.8844C18.6049 15.8686 19 17.0902 19 18.5491C19 20.8069 18.1021 22.6132 16.3062 23.9679C14.5104 25.3226 12.1519 26 9.23062 26C7.51859 26 5.92628 25.6874 4.45369 25.0621C2.99307 24.4253 1.88563 23.5511 1.13138 22.4395C0.377127 21.3164 0 20.0428 0 18.6186H6.0879C6.0879 19.3943 6.41115 20.0659 7.05766 20.6333C7.70416 21.2006 8.50032 21.4843 9.44613 21.4843C10.5117 21.4843 11.3617 21.2006 11.9962 20.6333C12.6308 20.0543 12.948 19.3191 12.948 18.4275C12.948 17.1539 12.6188 16.2507 11.9603 15.7181C11.3018 15.1855 10.3919 14.9192 9.23062 14.9192H6.28544V10.5598Z" fill="#CBA584"/>
</svg>
