<svg width="39" height="39" viewBox="0 0 39 39" fill="none" xmlns="http://www.w3.org/2000/svg">
<path d="M32.5632 5.89559C25.1634 -1.50426 13.1306 -1.50426 5.73071 5.89559C3.14076 8.48554 1.37123 11.7511 0.59907 15.3224C-0.140915 18.7971 0.100384 22.4005 1.30688 25.7465C1.45166 26.1487 1.90209 26.3578 2.28817 26.213C2.69033 26.0682 2.89946 25.6339 2.75468 25.2317C1.6447 22.1592 1.41949 18.8453 2.11121 15.6602C2.81903 12.3785 4.44378 9.38639 6.8246 7.00557C13.6292 0.184837 24.6808 0.184837 31.4693 6.98948C34.7027 10.2229 36.5205 14.5341 36.5688 19.1027C36.617 23.6713 34.9119 27.9986 31.775 31.3125C31.7428 31.3447 31.6945 31.3929 31.6624 31.4251C31.598 31.4894 31.5337 31.5699 31.4693 31.6342C24.6808 38.4228 13.6132 38.4228 6.8246 31.6342C6.79242 31.602 6.76025 31.5538 6.71199 31.5216C6.71199 31.4573 6.71199 31.3768 6.71199 31.3125C6.71199 31.1516 6.71199 31.0068 6.72808 30.846C6.72808 30.7977 6.72808 30.7494 6.74416 30.6851C6.74416 30.5886 6.76025 30.476 6.76025 30.3795C6.76025 30.3151 6.77634 30.2508 6.77634 30.2025C6.79242 30.106 6.79242 30.0255 6.80851 29.929C6.80851 29.8647 6.8246 29.8003 6.84068 29.736C6.85677 29.6556 6.85677 29.559 6.87286 29.4786C6.88894 29.4143 6.88894 29.3499 6.90503 29.2856C6.92112 29.2051 6.9372 29.1086 6.95329 29.0282C6.96938 28.9638 6.98546 28.8995 6.98546 28.8351C7.00155 28.7547 7.01764 28.6743 7.03372 28.5938C7.04981 28.5295 7.0659 28.4651 7.08198 28.4008C7.09807 28.3204 7.11416 28.2399 7.14633 28.1595C7.16242 28.0951 7.1785 28.0308 7.19459 27.9665C7.21068 27.886 7.24285 27.8056 7.25894 27.7252C7.27502 27.6608 7.3072 27.5965 7.32328 27.5321C7.35546 27.4517 7.37154 27.3713 7.40372 27.3069C7.4198 27.2426 7.45198 27.1782 7.46806 27.1139C7.50024 27.0334 7.51632 26.9691 7.5485 26.8887C7.58067 26.8243 7.59676 26.76 7.62893 26.6956C7.6611 26.6152 7.69328 26.5508 7.72545 26.4704C7.75762 26.4061 7.77371 26.3417 7.80588 26.2774C7.83806 26.1969 7.87023 26.1326 7.9024 26.0521C7.93458 25.9878 7.96675 25.9235 7.99892 25.8591C8.0311 25.7948 8.06327 25.7143 8.11153 25.65C8.1437 25.5856 8.17588 25.5213 8.20805 25.473C8.24022 25.4087 8.28848 25.3282 8.32065 25.2639C8.35283 25.1996 8.385 25.1513 8.41717 25.087C8.46543 25.0226 8.49761 24.9422 8.54587 24.8778C8.57804 24.8135 8.61021 24.7652 8.65847 24.7009C8.70673 24.6365 8.73891 24.5722 8.78717 24.4917C8.81934 24.4274 8.8676 24.3791 8.89977 24.3309C8.94803 24.2665 8.99629 24.2022 9.04455 24.1378C9.07673 24.0896 9.12499 24.0252 9.15716 23.977C9.20542 23.9126 9.25368 23.8483 9.30194 23.7839C9.3502 23.7357 9.38237 23.6713 9.43063 23.6231C9.47889 23.5587 9.52715 23.4944 9.5915 23.43C9.63976 23.3818 9.67193 23.3335 9.72019 23.2692C9.76845 23.2048 9.8328 23.1405 9.88106 23.0761C9.92932 23.0279 9.96149 22.9796 10.0098 22.9313C10.058 22.867 10.1224 22.8026 10.1867 22.7544C10.235 22.7061 10.2832 22.6579 10.3315 22.6096C10.3958 22.5453 10.4441 22.497 10.5084 22.4327C10.5567 22.3844 10.605 22.3361 10.6532 22.2879C10.7176 22.2235 10.7819 22.1753 10.8463 22.1109C10.8945 22.0627 10.9428 22.0305 10.991 21.9822C11.0554 21.9179 11.1197 21.8696 11.1841 21.8214C11.2323 21.7731 11.2806 21.7409 11.3289 21.6927C11.3932 21.6444 11.4736 21.5801 11.538 21.5318C11.5862 21.4996 11.6345 21.4514 11.6828 21.4192C11.7632 21.3709 11.8275 21.3066 11.908 21.2583C11.9562 21.2262 12.0045 21.194 12.0528 21.1618C12.1332 21.0975 12.2136 21.0492 12.3101 20.9849C12.3584 20.9527 12.3906 20.9205 12.4388 20.9044C12.5514 20.8401 12.664 20.7596 12.7767 20.6953C12.7927 20.6792 12.8088 20.6792 12.8249 20.6631C12.9536 20.5827 13.0823 20.5023 13.2271 20.4379C13.2753 20.4057 13.3236 20.3897 13.3719 20.3575C13.4684 20.3092 13.5488 20.261 13.6453 20.2127C13.7097 20.1805 13.7579 20.1484 13.8223 20.1323C13.9027 20.1001 13.9671 20.0679 14.0475 20.0197C15.447 21.3549 17.3131 22.1109 19.2596 22.1109C21.206 22.1109 23.0721 21.3549 24.4716 20.0197C27.2064 21.2905 29.4424 23.5587 30.6489 26.3095C30.8259 26.6956 31.2763 26.8726 31.6624 26.7117C32.0484 26.5347 32.2254 26.0843 32.0645 25.6982C30.7293 22.674 28.4289 20.261 25.5012 18.8132C26.3538 17.5745 26.8042 16.0945 26.8042 14.5824C26.8042 10.4159 23.426 7.03774 19.2596 7.03774C18.8413 7.03774 18.4874 7.37556 18.4874 7.8099C18.4874 8.22816 18.8413 8.58206 19.2596 8.58206C22.5734 8.58206 25.2599 11.2685 25.2599 14.5824C25.2599 16.0623 24.7129 17.478 23.7156 18.5879C22.5734 19.8588 20.9487 20.5827 19.2596 20.5827C17.5705 20.5827 15.9457 19.8588 14.8036 18.5879C13.8062 17.478 13.2593 16.0623 13.2593 14.5824C13.2593 12.9737 13.8866 11.4616 15.0449 10.3194C15.3505 10.0138 15.3505 9.53117 15.0449 9.22553C14.7392 8.91988 14.2566 8.91988 13.951 9.22553C12.4067 10.6412 11.6023 12.5394 11.6023 14.5663C11.6023 16.0784 12.0528 17.5584 12.9053 18.7971C12.9053 18.7971 12.8893 18.7971 12.8893 18.8132C12.8249 18.8453 12.7767 18.8775 12.7123 18.9097C12.6158 18.9579 12.5354 19.0062 12.4388 19.0545C12.3745 19.0866 12.3101 19.1188 12.2458 19.1671C12.1654 19.2153 12.0688 19.2636 11.9884 19.3118C11.9241 19.344 11.8597 19.3923 11.7954 19.4245C11.7149 19.4727 11.6345 19.521 11.5541 19.5692C11.4897 19.6175 11.4254 19.6497 11.361 19.6979C11.2806 19.7462 11.2162 19.7944 11.1358 19.8588C11.0715 19.9071 11.0071 19.9553 10.9428 19.9875C10.8623 20.0357 10.798 20.1001 10.7176 20.1484C10.6532 20.1966 10.5889 20.2449 10.5406 20.2931C10.4763 20.3414 10.3958 20.4057 10.3315 20.454C10.2671 20.5023 10.2189 20.5505 10.1545 20.5988C10.0902 20.6631 10.0258 20.7114 9.94541 20.7757C9.88106 20.824 9.8328 20.8723 9.76845 20.9366C9.70411 21.0009 9.63976 21.0492 9.57541 21.1136C9.51107 21.1618 9.46281 21.2262 9.41455 21.2744C9.3502 21.3388 9.28585 21.4031 9.22151 21.4675C9.17325 21.5157 9.1089 21.5801 9.06064 21.6283C8.99629 21.6927 8.93195 21.757 8.88369 21.8214C8.83543 21.8696 8.78717 21.934 8.73891 21.9822C8.67456 22.0466 8.61021 22.127 8.56195 22.1914C8.51369 22.2396 8.46543 22.304 8.41717 22.3522C8.35283 22.4327 8.30457 22.497 8.24022 22.5774C8.19196 22.6257 8.1437 22.69 8.11153 22.7383C8.04718 22.8187 7.98284 22.8992 7.93458 22.9796C7.9024 23.0279 7.85414 23.0761 7.82197 23.1244C7.74154 23.237 7.67719 23.3335 7.59676 23.4461C7.58067 23.4783 7.56458 23.4944 7.53241 23.5265C7.43589 23.6552 7.35546 23.8 7.25894 23.9448C7.22676 23.9931 7.19459 24.0413 7.1785 24.0896C7.13024 24.1861 7.0659 24.2665 7.01764 24.3631C6.98546 24.4274 6.95329 24.4757 6.92112 24.54C6.87286 24.6204 6.8246 24.717 6.77634 24.7974C6.74416 24.8617 6.71199 24.9261 6.67982 24.9904C6.63156 25.0709 6.59938 25.1513 6.55112 25.2478C6.51895 25.3122 6.48678 25.3765 6.45461 25.4569C6.42243 25.5374 6.37417 25.6178 6.342 25.6982C6.30982 25.7626 6.27765 25.843 6.26157 25.9074C6.22939 25.9878 6.19722 26.0682 6.16505 26.1648C6.13287 26.2291 6.11679 26.3095 6.08461 26.3739C6.05244 26.4543 6.02027 26.5347 5.98809 26.6313C5.95592 26.6956 5.93983 26.776 5.90766 26.8404C5.87549 26.9208 5.84331 27.0173 5.82723 27.0978C5.81114 27.1782 5.77897 27.2426 5.76288 27.323C5.73071 27.4034 5.71462 27.4999 5.68245 27.5804C5.66636 27.6608 5.63419 27.7252 5.6181 27.8056C5.60201 27.9021 5.56984 27.9825 5.55375 28.0791C5.53767 28.1595 5.52158 28.2238 5.50549 28.3043C5.48941 28.4008 5.47332 28.4812 5.44115 28.5777C5.42506 28.6582 5.40897 28.7225 5.39289 28.803C5.3768 28.8995 5.36071 28.996 5.34463 29.0764C5.32854 29.1569 5.31245 29.2212 5.31245 29.3016C5.29637 29.3982 5.28028 29.4947 5.28028 29.5912C5.26419 29.6556 5.26419 29.736 5.24811 29.8003C5.23202 29.8969 5.23202 30.0095 5.21593 30.106C5.21593 30.1703 5.19985 30.2347 5.19985 30.3151C5.18376 30.4277 5.18376 30.5403 5.18376 30.6529C5.18376 30.7173 5.18376 30.7655 5.16767 30.8299C5.16767 31.0068 5.15159 31.1677 5.15159 31.3447C5.15159 31.5377 5.15159 31.7146 5.16767 31.9077C5.16767 31.9559 5.18376 32.0042 5.18376 32.0364C5.18376 32.0364 5.18376 32.0364 5.18376 32.0525C5.19985 32.1007 5.19985 32.1329 5.21593 32.1812C5.21593 32.1812 5.21593 32.1812 5.21593 32.1972C5.23202 32.2294 5.24811 32.2777 5.28028 32.3098C5.28028 32.3098 5.28028 32.3259 5.29637 32.3259C5.31245 32.3581 5.34463 32.3903 5.3768 32.4225L5.47332 32.5351C5.55375 32.6155 5.63419 32.6959 5.71462 32.7764C9.41455 36.4763 14.2727 38.3263 19.1309 38.3263C23.989 38.3263 28.8472 36.4763 32.5471 32.7764C32.6276 32.6959 32.708 32.6155 32.7884 32.5351L32.8849 32.4225C36.3114 28.819 38.1614 24.1057 38.097 19.1349C38.0648 14.0998 36.0862 9.41857 32.5632 5.89559Z" fill="#5F4B3C"/>
</svg>
