<svg width="37" height="36" viewBox="0 0 37 36" fill="none" xmlns="http://www.w3.org/2000/svg">
<path d="M28.3309 7.52882C28.9977 6.81478 29.4213 5.84191 29.4213 4.77085C29.4213 2.53949 27.619 0.754395 25.4383 0.754395C23.7802 0.754395 19.9594 3.2089 18.4275 5.41349C16.8505 3.2089 13.0388 0.825798 11.4528 0.825798C9.27205 0.825798 7.4698 2.61089 7.4698 4.84226C7.4698 5.87761 7.85728 6.81478 8.48807 7.51989H0.774414V17.1237H2.88305V35.7422H34.008V17.1326H36.0986V7.52882H28.3309ZM25.4293 2.24495C26.781 2.24495 27.9074 3.36063 27.9074 4.85118C27.9074 6.10967 27.0243 7.18965 25.8708 7.41279H19.7702C19.3827 7.29676 19.2566 7.16288 19.2566 7.08255C19.2656 5.81513 23.7712 2.24495 25.4293 2.24495ZM11.4438 2.24495C13.0207 2.24495 17.6075 5.81513 17.6075 7.08255C17.6075 7.19858 17.3372 7.32353 17.1479 7.41279H11.0022C9.85779 7.18965 8.97468 6.10967 8.97468 4.85118C8.96567 3.43203 10.0921 2.24495 11.4438 2.24495ZM13.9219 34.2516H4.37893V17.1326H13.9219V34.2516ZM13.9219 15.7224H2.2793V9.0283H13.9309L13.9219 15.7224ZM21.4373 34.2516H15.4268V9.01937H21.4373V34.2516ZM32.4851 34.2516H22.9422V17.1326H32.4851V34.2516ZM34.5847 15.7224H22.9422V9.0283H34.5938L34.5847 15.7224Z" fill="#5F4B3C"/>
</svg>
