<svg width="33" height="40" viewBox="0 0 33 40" fill="none" xmlns="http://www.w3.org/2000/svg">
<path fill-rule="evenodd" clip-rule="evenodd" d="M26.7905 10.0847H31.9723C32.438 10.0847 32.819 10.4837 32.819 10.9713V35.3093C32.819 37.7564 30.9224 39.7424 28.5855 39.7424H27.2308H10.4662H4.87801C2.54113 39.7424 0.644531 37.7564 0.644531 35.3093V10.9625C0.644531 10.6433 0.81387 10.3507 1.07635 10.1911C1.34729 10.0404 1.66903 10.0404 1.93151 10.2088L2.96448 10.8649C3.77731 11.3792 4.78487 11.3792 5.5977 10.8649L6.63914 10.2088C6.64337 10.2088 6.64549 10.2066 6.6476 10.2044C6.64972 10.2022 6.65184 10.2 6.65607 10.2C6.66454 10.1911 6.68146 10.1822 6.69839 10.1734L6.69841 10.1734C6.70487 10.17 6.71011 10.1679 6.71458 10.1661C6.72181 10.1632 6.72704 10.1611 6.73227 10.1556C6.74074 10.1512 6.74709 10.149 6.75344 10.1468C6.75979 10.1446 6.76614 10.1423 6.77461 10.1379C6.78307 10.129 6.80001 10.1202 6.80848 10.1202C6.81694 10.1202 6.82329 10.118 6.82964 10.1157C6.83599 10.1135 6.84234 10.1113 6.85081 10.1113C6.85928 10.1113 6.86563 10.1091 6.87198 10.1069C6.87833 10.1047 6.88468 10.1024 6.89315 10.1024C6.89738 10.1024 6.90373 10.1002 6.91008 10.098C6.91643 10.0958 6.92278 10.0936 6.92701 10.0936C6.93548 10.0936 6.94395 10.0914 6.95241 10.0891C6.96088 10.0869 6.96935 10.0847 6.97782 10.0847H7.01168H7.06249H7.07942H8.5188V7.70855C8.5188 3.65666 11.6685 0.358398 15.5379 0.358398C16.2745 0.358398 16.9858 0.482526 17.6546 0.704183C18.3235 0.482526 19.0348 0.358398 19.7714 0.358398C23.6408 0.358398 26.7905 3.65666 26.7905 7.70855V10.0847ZM25.0971 10.0847V7.70855C25.0971 4.74721 22.8957 2.32671 20.1101 2.14052C21.6087 3.4882 22.557 5.48311 22.557 7.70855V10.0847H25.0971ZM14.4372 7.70855V10.0847H20.8552V7.70855C20.8552 5.41218 19.5343 3.44387 17.6462 2.58384C15.758 3.44387 14.4372 5.42105 14.4372 7.70855ZM15.1908 2.14052C12.4051 2.32671 10.2037 4.75608 10.2037 7.70855V10.0847H12.7438V7.70855C12.7438 5.48311 13.7006 3.4882 15.1908 2.14052ZM2.33792 12.5318V35.3182C2.33792 36.7811 3.48096 37.978 4.87801 37.978H7.07942C6.546 37.2333 6.23272 36.3112 6.23272 35.3182V12.5318C5.00501 13.1968 3.56563 13.1968 2.33792 12.5318ZM28.5855 37.978C29.9825 37.978 31.1256 36.7811 31.1256 35.3182V11.858H26.799V18.1708C26.799 18.6584 26.4179 19.0574 25.9523 19.0574C25.4866 19.0574 25.1056 18.6584 25.1056 18.1708V11.858H21.8627C21.8563 11.8591 21.85 11.8602 21.8438 11.8613C21.801 11.8689 21.7631 11.8757 21.7188 11.8757C21.668 11.8757 21.6172 11.8668 21.5749 11.858H14.4457V18.1708C14.4457 18.6584 14.0647 19.0574 13.599 19.0574C13.1333 19.0574 12.7523 18.6584 12.7523 18.1708V11.858H9.50944C9.50299 11.8591 9.49668 11.8602 9.49047 11.8613C9.44775 11.8689 9.40985 11.8757 9.3655 11.8757C9.3147 11.8757 9.26389 11.8668 9.22156 11.858H7.92611V35.3182C7.92611 36.7811 9.06915 37.978 10.4662 37.978H27.2308H28.5855ZM18.8908 25.9818L22.3622 22.3465C22.6924 22.0007 23.2259 22.0007 23.5645 22.3465C23.8947 22.6923 23.8947 23.2509 23.5645 23.5967L19.4919 27.8615C19.3311 28.0211 19.1194 28.1187 18.8908 28.1187C18.6622 28.1187 18.4505 28.0211 18.2896 27.8527L16.0035 25.4409C15.6733 25.0951 15.6818 24.5366 16.012 24.1908C16.3422 23.845 16.8756 23.8538 17.2058 24.1996L18.8908 25.9818Z" fill="#5F4B3C"/>
</svg>
