<svg width="194" height="199" viewBox="0 0 194 199" fill="none" xmlns="http://www.w3.org/2000/svg">
<path d="M189.41 153.864C190.245 152.781 190.045 151.226 188.963 150.39L171.32 136.772C170.237 135.937 168.682 136.137 167.847 137.219C167.011 138.302 167.211 139.857 168.294 140.693L183.976 152.798L171.871 168.48C171.035 169.563 171.236 171.118 172.318 171.953C173.401 172.789 174.956 172.589 175.792 171.506L189.41 153.864ZM45.7888 4C43.4314 3.24193 43.4309 3.24325 43.4304 3.2448C43.4302 3.24563 43.4296 3.24743 43.4291 3.2491C43.428 3.25245 43.4266 3.25675 43.425 3.262C43.4216 3.2725 43.4171 3.28681 43.4114 3.30488C43.4001 3.34103 43.3842 3.39226 43.3641 3.45827C43.3238 3.59028 43.2665 3.78147 43.195 4.02953C43.0521 4.52563 42.8521 5.24944 42.6169 6.18264C42.1465 8.04871 41.5346 10.754 40.9556 14.1519C39.7982 20.9441 38.7687 30.5243 39.273 41.7121C40.2824 64.1024 47.4442 92.9861 72.0417 118.745L75.6236 115.325C52.0507 90.6387 45.1906 63.0048 44.2207 41.489C43.7354 30.7237 44.7269 21.5036 45.8379 14.9838C46.3931 11.7257 46.9772 9.14708 47.4193 7.39322C47.6403 6.51645 47.8257 5.8463 47.9541 5.40092C48.0182 5.17825 48.0681 5.01182 48.1011 4.90391C48.1175 4.84995 48.1297 4.81063 48.1374 4.78623C48.1412 4.77403 48.1439 4.76556 48.1454 4.76085C48.1461 4.7585 48.1466 4.75709 48.1467 4.75662C48.1468 4.75639 48.1467 4.75675 48.1467 4.75663C48.1465 4.75723 48.1463 4.75807 45.7888 4ZM72.0417 118.745C93.8148 141.546 122.845 150.514 146.22 153.823C157.93 155.481 168.289 155.729 175.724 155.563C179.444 155.479 182.437 155.293 184.508 155.126C185.544 155.042 186.35 154.963 186.901 154.905C187.176 154.876 187.388 154.852 187.533 154.835C187.606 154.826 187.662 154.82 187.7 154.815C187.72 154.812 187.735 154.81 187.746 154.809C187.751 154.808 187.756 154.808 187.759 154.807C187.761 154.807 187.762 154.807 187.763 154.807C187.765 154.807 187.766 154.807 187.449 152.351C187.133 149.894 187.134 149.894 187.134 149.894C187.134 149.894 187.134 149.894 187.133 149.894C187.132 149.895 187.13 149.895 187.127 149.895C187.121 149.896 187.11 149.897 187.095 149.899C187.065 149.903 187.018 149.909 186.955 149.916C186.828 149.931 186.635 149.953 186.38 149.98C185.867 150.034 185.103 150.109 184.11 150.189C182.125 150.349 179.228 150.53 175.614 150.611C168.382 150.773 158.3 150.531 146.914 148.919C124.098 145.689 96.3201 136.999 75.6236 115.325L72.0417 118.745Z" fill="white"/>
</svg>
