<svg width="156" height="149" viewBox="0 0 156 149" fill="none" xmlns="http://www.w3.org/2000/svg">
<path d="M77.9989 45.0002L79.608 42.4682L77.9989 45.0002ZM120.082 137.049C118.674 137.923 116.824 137.489 115.951 136.082L101.716 113.139C100.843 111.731 101.276 109.881 102.684 109.008C104.092 108.134 105.941 108.568 106.815 109.975L119.468 130.369L139.861 117.716C141.269 116.843 143.119 117.276 143.992 118.684C144.866 120.092 144.432 121.941 143.024 122.815L120.082 137.049ZM3 39.8315C2.05233 36.9852 2.05336 36.9848 2.05455 36.9844C2.05517 36.9842 2.05654 36.9838 2.05778 36.9833C2.06027 36.9825 2.06343 36.9815 2.06725 36.9802C2.0749 36.9777 2.08522 36.9743 2.09817 36.97C2.12408 36.9616 2.16055 36.9497 2.20735 36.9346C2.30096 36.9045 2.43595 36.8615 2.61058 36.8073C2.95981 36.6988 3.46778 36.5451 4.12059 36.3583C5.42592 35.9846 7.31222 35.4778 9.6682 34.9346C14.3757 33.8493 20.9822 32.613 28.5916 32.0088C43.7309 30.8066 63.2512 32.0735 79.608 42.4682L76.3899 47.5321C61.6257 38.1495 43.6466 36.8321 29.0666 37.9899C21.8164 38.5657 15.5083 39.7456 11.0162 40.7813C8.77236 41.2986 6.98755 41.7786 5.77174 42.1266C5.16398 42.3006 4.69887 42.4414 4.39016 42.5373C4.23582 42.5853 4.12062 42.6219 4.04629 42.6459C4.00912 42.6578 3.98218 42.6666 3.96567 42.672C3.95742 42.6747 3.95177 42.6766 3.94876 42.6776C3.94726 42.6781 3.94641 42.6783 3.94623 42.6784C3.94614 42.6784 3.9465 42.6783 3.94645 42.6783C3.94698 42.6782 3.94767 42.6779 3 39.8315ZM79.608 42.4682C107.174 59.9865 117.695 83.1476 121.26 101.941C123.036 111.306 123.084 119.568 122.689 125.497C122.491 128.464 122.181 130.855 121.917 132.518C121.785 133.35 121.665 134.001 121.576 134.451C121.531 134.676 121.494 134.852 121.468 134.975C121.454 135.036 121.444 135.085 121.436 135.12C121.432 135.137 121.429 135.151 121.426 135.162C121.425 135.167 121.424 135.172 121.423 135.176C121.422 135.177 121.422 135.18 121.422 135.181C121.421 135.182 121.421 135.184 118.5 134.5C115.579 133.816 115.579 133.817 115.578 133.818C115.578 133.818 115.578 133.819 115.578 133.819C115.578 133.82 115.578 133.819 115.579 133.818C115.579 133.815 115.581 133.809 115.583 133.8C115.587 133.781 115.594 133.749 115.604 133.705C115.623 133.616 115.653 133.475 115.69 133.286C115.765 132.906 115.872 132.331 115.991 131.579C116.229 130.075 116.517 127.864 116.702 125.097C117.072 119.557 117.026 111.819 115.365 103.059C112.054 85.6025 102.325 64.0137 76.3899 47.5321L79.608 42.4682Z" fill="white"/>
</svg>
