<svg width="260" height="77" viewBox="0 0 260 77" fill="none" xmlns="http://www.w3.org/2000/svg">
<path d="M254.966 3.04841C254.716 1.41044 253.186 0.284779 251.548 0.534183L224.856 4.59845C223.218 4.84785 222.092 6.37788 222.342 8.01585C222.591 9.65383 224.121 10.7795 225.759 10.5301L249.486 6.9174L253.098 30.6439C253.348 32.2819 254.878 33.4076 256.516 33.1582C258.154 32.9088 259.279 31.3787 259.03 29.7408L254.966 3.04841ZM3.5 3.5C0.86344 4.93128 0.864238 4.93274 0.865181 4.93448C0.865689 4.93541 0.86678 4.93742 0.867798 4.93928C0.869835 4.94302 0.872457 4.94782 0.875663 4.95368C0.882076 4.96539 0.890828 4.98132 0.901924 5.0014C0.924117 5.04158 0.955687 5.09837 0.996668 5.17125C1.07863 5.317 1.19824 5.52711 1.35578 5.79729C1.67084 6.33761 2.13771 7.11839 2.75853 8.10526C3.99995 10.0787 5.85831 12.8782 8.35095 16.2283C13.3337 22.9251 20.8662 31.8424 31.0905 40.7608C51.5526 58.6094 82.8513 76.5 126 76.5V70.5C84.6487 70.5 54.6974 53.3906 35.0345 36.2392C25.1963 27.6576 17.9476 19.0749 13.1647 12.6467C10.7745 9.43429 9.00395 6.7651 7.83718 4.91037C7.2539 3.98317 6.82184 3.26005 6.53899 2.77498C6.39758 2.53246 6.2935 2.34951 6.22651 2.23037C6.19301 2.1708 6.16879 2.12719 6.1538 2.10007C6.14631 2.08651 6.14113 2.07707 6.13826 2.07183C6.13682 2.0692 6.13597 2.06763 6.13568 2.06711C6.13554 2.06685 6.13576 2.06725 6.13569 2.06712C6.13605 2.06779 6.13656 2.06872 3.5 3.5ZM126 76.5C164.194 76.5 196.339 58.5674 218.795 40.8555C230.045 31.9827 238.929 23.1141 245.004 16.4604C248.044 13.1318 250.384 10.3529 251.971 8.39852C252.764 7.42119 253.369 6.64964 253.779 6.11819C253.984 5.85245 254.14 5.6467 254.247 5.50522C254.3 5.43448 254.341 5.3798 254.369 5.34173C254.383 5.32269 254.394 5.3078 254.402 5.29713C254.406 5.29179 254.409 5.28751 254.412 5.28429C254.413 5.28268 254.414 5.28107 254.415 5.28026C254.416 5.27891 254.416 5.27783 252 3.5C249.584 1.72217 249.584 1.72162 249.584 1.72134C249.584 1.7216 249.584 1.72158 249.584 1.7221C249.583 1.72313 249.581 1.72523 249.579 1.72837C249.574 1.73466 249.567 1.74513 249.556 1.75974C249.534 1.78896 249.5 1.83468 249.453 1.89639C249.36 2.01981 249.218 2.20712 249.028 2.45408C248.647 2.94802 248.073 3.68037 247.312 4.61711C245.791 6.49084 243.527 9.18067 240.574 12.4146C234.665 18.8859 226.018 27.5173 215.08 36.1445C193.161 53.4326 162.306 70.5 126 70.5V76.5Z" fill="white"/>
</svg>
