<svg width="138" height="78" viewBox="0 0 138 78" fill="none" xmlns="http://www.w3.org/2000/svg">
<path fill-rule="evenodd" clip-rule="evenodd" d="M11.2096 2.04662C11.2094 2.0457 11.2092 2.04492 13.3229 1.54943C15.4365 1.05395 15.4364 1.05345 15.4363 1.05309L15.4369 1.0555L15.4404 1.07024L15.457 1.13862C15.4723 1.20126 15.4963 1.29769 15.5291 1.42608C15.5948 1.68288 15.6961 2.06741 15.8354 2.56506C16.114 3.56057 16.5441 5.00738 17.1445 6.78879C18.3462 10.3547 20.2246 15.2446 22.9263 20.5315C28.356 31.1569 36.9751 43.1209 49.8566 49.3915C72.4282 60.3791 91.627 57.9066 105.2 52.732C112.009 50.1363 117.414 46.8539 121.111 44.2235C121.516 43.9359 121.899 43.6562 122.262 43.3862L108.694 43.3367C107.495 43.3323 106.527 42.3568 106.531 41.1578C106.536 39.9589 107.511 38.9905 108.71 38.9948L128.248 39.0662C129.447 39.0705 130.416 40.046 130.411 41.245L130.34 60.7833C130.336 61.9823 129.36 62.9507 128.161 62.9463C126.962 62.9419 125.994 61.9664 125.998 60.7675L126.052 45.9567C125.341 46.5115 124.532 47.1187 123.628 47.7615C119.701 50.5554 113.972 54.0347 106.747 56.789C92.2536 62.3144 71.7854 64.8952 47.9563 53.2954C33.847 46.4272 24.6744 33.4942 19.06 22.5073C16.2396 16.9881 14.2828 11.893 13.03 8.17543C12.403 6.31511 11.9509 4.79558 11.6542 3.73519C11.5058 3.20488 11.3961 2.78907 11.3228 2.50252C11.2861 2.35923 11.2585 2.24823 11.2397 2.17136C11.2303 2.13292 11.2231 2.10301 11.218 2.08186L11.212 2.05674L11.2096 2.04662ZM15.4363 1.05309C15.4363 1.05316 15.4363 1.05296 15.4363 1.05309V1.05309Z" fill="white"/>
</svg>
