<svg width="520" height="187" viewBox="0 0 520 187" fill="none" xmlns="http://www.w3.org/2000/svg">
<path d="M41.4838 112.191C23.3248 109.223 9.61993 100.7 0.369333 86.624L21.5295 71.5396C27.937 80.693 35.5325 85.9875 44.3159 87.423C48.3622 88.0844 51.7229 87.671 54.3979 86.183C57.0891 84.5963 58.6928 82.2239 59.2089 79.0658L59.2573 78.7698C59.8058 75.4143 58.7528 72.557 56.0986 70.198C53.543 67.8551 49.5513 66.2401 44.1233 65.353L31.9844 63.369L30.4311 47.7641L57.6251 30.1701L18.0995 23.71L21.8981 0.468408L96.6562 12.6869L93.3173 33.1158L65.1113 50.3924C82.329 57.2596 89.6717 68.4404 87.1393 83.9348L87.0909 84.2308C85.3973 94.5934 80.2841 102.32 71.7513 107.41C63.3171 112.517 53.228 114.11 41.4838 112.191ZM140.534 128.379C126.224 126.04 115.515 119.021 108.41 107.322C101.32 95.5238 99.0088 82.075 101.477 66.9753L101.525 66.6792C103.993 51.5796 110.515 39.5744 121.091 30.6636C131.683 21.6541 144.134 18.3187 158.444 20.6576C172.754 22.9964 183.454 30.0649 190.544 41.863C197.65 53.5624 199.969 66.9619 197.501 82.0615L197.452 82.3576C194.984 97.4573 188.454 109.512 177.863 118.521C167.385 127.448 154.942 130.734 140.534 128.379ZM132.358 92.8453C135.056 98.6566 139.267 102.03 144.991 102.966C150.715 103.901 155.732 102.036 160.041 97.3697C164.35 92.7037 167.182 86.2257 168.537 77.9357L168.585 77.6396C169.956 69.2509 169.301 62.1016 166.619 56.1916C163.937 50.2816 159.734 46.8589 154.01 45.9233C148.385 45.0039 143.368 46.8692 138.961 51.5191C134.652 56.1851 131.811 62.7125 130.44 71.1012L130.392 71.3973C129.021 79.786 129.676 86.9353 132.358 92.8453ZM204.301 136.674L221.238 33.0485L304.582 46.6703L300.614 70.9482L245.692 61.9718L243.104 77.8117L292.844 85.9412L289.142 108.591L239.402 100.461L236.716 116.893L292.378 125.99L288.385 150.416L204.301 136.674ZM349.501 162.381C334.401 159.913 323.302 154.046 316.204 144.78C309.106 135.513 306.847 122.985 309.428 107.195L318.937 49.0165L347.952 53.7587L338.54 111.345C337.346 118.648 338.121 124.449 340.863 128.747C343.72 132.963 348.11 135.555 354.031 136.523C360.051 137.507 365.03 136.497 368.966 133.492C373.001 130.504 375.599 125.457 376.76 118.351L386.293 60.0252L415.308 64.7674L405.92 122.205C403.275 138.391 397.006 149.779 387.113 156.369C377.336 162.877 364.798 164.881 349.501 162.381ZM415.368 171.17L432.304 67.5453L481.304 75.5539C496.404 78.0218 507.05 83.5615 513.242 92.173C518.36 99.2919 520.105 107.835 518.476 117.803L518.428 118.099C515.928 133.396 507.08 142.893 491.884 146.591L510.703 186.752L477.691 181.356L461.947 146.561L449.216 144.481L444.087 175.864L415.368 171.17ZM452.894 121.979L471.99 125.1C476.826 125.891 480.754 125.418 483.773 123.682C486.908 121.864 488.781 119.08 489.394 115.33L489.443 115.034C490.104 110.987 489.222 107.702 486.798 105.178C484.389 102.555 480.767 100.848 475.931 100.058L456.983 96.9611L452.894 121.979Z" fill="#EE3124"/>
</svg>
