<svg width="102" height="139" viewBox="0 0 102 139" fill="none" xmlns="http://www.w3.org/2000/svg">
<path d="M59.3743 47.0329L61.3359 45.5216L59.3743 47.0329ZM66.0976 130.307C64.7591 130.589 63.4462 129.731 63.165 128.393L58.583 106.582C58.3018 105.244 59.1589 103.931 60.4973 103.65C61.8358 103.368 63.1487 104.225 63.4299 105.564L67.5028 124.951L86.8903 120.878C88.2287 120.597 89.5417 121.454 89.8229 122.793C90.104 124.131 89.247 125.444 87.9085 125.725L66.0976 130.307ZM2.63867 21.8967C2.70515 19.4213 2.70604 19.4213 2.70708 19.4213C2.70762 19.4213 2.70881 19.4214 2.70989 19.4214C2.71205 19.4215 2.7148 19.4216 2.71812 19.4216C2.72477 19.4218 2.73373 19.4221 2.74498 19.4225C2.76747 19.4232 2.79911 19.4242 2.83967 19.4257C2.92079 19.4287 3.03762 19.4334 3.18839 19.4405C3.48991 19.4548 3.92734 19.4786 4.48649 19.5175C5.60454 19.5953 7.21087 19.7334 9.19187 19.9755C13.1502 20.4594 18.6243 21.3612 24.6987 23.0358C36.7838 26.3674 51.5728 32.8489 61.3359 45.5216L57.4126 48.5442C48.6 37.1054 35.0211 31.0189 23.3824 27.8103C17.5949 26.2148 12.3681 25.3534 8.59091 24.8916C6.70418 24.661 5.18415 24.5307 4.14277 24.4582C3.62221 24.422 3.22166 24.4003 2.95513 24.3877C2.82187 24.3814 2.72216 24.3774 2.65774 24.3751C2.62554 24.3739 2.60216 24.3731 2.58782 24.3727C2.58066 24.3724 2.57575 24.3723 2.57314 24.3722C2.57183 24.3722 2.5711 24.3721 2.57094 24.3721C2.57086 24.3721 2.57117 24.3721 2.57113 24.3721C2.57159 24.3722 2.57219 24.3722 2.63867 21.8967ZM61.3359 45.5216C77.7899 66.8788 79.4292 87.8131 76.9011 103.399C75.6413 111.165 73.3516 117.589 71.3745 122.078C70.385 124.325 69.471 126.093 68.798 127.309C68.4614 127.917 68.1848 128.388 67.9887 128.713C67.8906 128.875 67.8127 129 67.7574 129.088C67.7297 129.132 67.7078 129.167 67.6918 129.192C67.6838 129.204 67.6773 129.214 67.6723 129.222C67.6698 129.226 67.6678 129.229 67.666 129.232C67.6652 129.233 67.6642 129.234 67.6638 129.235C67.6629 129.236 67.6621 129.238 65.5885 127.884C63.5148 126.53 63.5142 126.531 63.5137 126.532C63.5137 126.532 63.5133 126.533 63.5132 126.533C63.5131 126.533 63.5133 126.533 63.5139 126.532C63.5152 126.53 63.5179 126.525 63.5222 126.519C63.5307 126.506 63.5451 126.483 63.5652 126.451C63.6053 126.387 63.6678 126.287 63.7504 126.15C63.9154 125.877 64.1602 125.461 64.4645 124.911C65.0733 123.811 65.9192 122.177 66.842 120.082C68.6894 115.888 70.8339 109.871 72.0123 102.606C74.3606 88.1288 72.8928 68.6376 57.4126 48.5442L61.3359 45.5216Z" fill="white"/>
</svg>
